<svg width="708" height="355" viewBox="0 0 708 355" fill="none" xmlns="http://www.w3.org/2000/svg">
<path d="M555 47.5023C555 94.507 545.504 103.605 540.946 107.395M540.946 107.395C525.448 119.526 523.853 144.291 524.992 155.158M540.946 107.395C512.837 114.977 487.894 59.8853 486.628 24M524.992 155.158C490.047 165.772 461.305 110.175 463.078 83.893M524.992 155.158C548.543 155.158 550.315 179.671 555 187" stroke="#F1EDE0" stroke-width="10"/>
<path d="M602 47.5023C602 94.507 613.192 103.605 618.564 107.395M618.564 107.395C636.83 119.526 637.798 134.234 637.798 145.905M618.564 107.395C651.693 114.977 681.09 59.8853 682.583 24M637.798 145.905C678.984 156.519 695.918 115.551 693.829 89.2691M637.798 145.905C610.041 145.905 607.521 179.671 602 187" stroke="#F1EDE0" stroke-width="10"/>
<path d="M527.361 224.187C500.148 224.187 487.546 204.034 486 192.87C503.936 182.038 518.471 188.2 527.361 195.326C536.252 202.452 542.437 226.362 542.437 248.771V293.665C549.24 313.048 568.207 318.525 578 319" stroke="#F1EDE0" stroke-width="10"/>
<path d="M628.639 224.187C655.852 224.187 668.454 204.034 670 192.87C652.064 182.038 637.529 188.2 628.639 195.326C619.748 202.452 613.563 226.362 613.563 248.771V293.665C606.76 313.048 587.793 318.525 578 319" stroke="#F1EDE0" stroke-width="10"/>
<path d="M99.929 244H89.9148C89.169 240.271 87.8196 236.827 85.8665 233.666C83.9489 230.47 81.5341 227.683 78.6222 225.303C75.7102 222.924 72.4077 221.077 68.7145 219.763C65.0213 218.45 61.0263 217.793 56.7294 217.793C49.8402 217.793 43.5547 219.586 37.8729 223.173C32.2266 226.759 27.6989 232.033 24.2898 238.993C20.9162 245.918 19.2294 254.405 19.2294 264.455C19.2294 274.575 20.9162 283.098 24.2898 290.023C27.6989 296.947 32.2266 302.203 37.8729 305.79C43.5547 309.341 49.8402 311.116 56.7294 311.116C61.0263 311.116 65.0213 310.46 68.7145 309.146C72.4077 307.832 75.7102 306.003 78.6222 303.659C81.5341 301.28 83.9489 298.492 85.8665 295.296C87.8196 292.1 89.169 288.638 89.9148 284.909H99.929C99.0412 289.916 97.3722 294.586 94.9219 298.918C92.5071 303.215 89.4176 306.979 85.6534 310.211C81.9247 313.442 77.6278 315.964 72.7628 317.775C67.8977 319.586 62.5533 320.491 56.7294 320.491C47.5675 320.491 39.4354 318.201 32.3331 313.62C25.2308 309.004 19.6555 302.505 15.6072 294.124C11.5945 285.744 9.58807 275.854 9.58807 264.455C9.58807 253.055 11.5945 243.165 15.6072 234.785C19.6555 226.404 25.2308 219.923 32.3331 215.342C39.4354 210.726 47.5675 208.418 56.7294 208.418C62.5533 208.418 67.8977 209.323 72.7628 211.134C77.6278 212.91 81.9247 215.431 85.6534 218.698C89.4176 221.93 92.5071 225.694 94.9219 229.991C97.3722 234.288 99.0412 238.957 99.929 244ZM138.486 319H128.046L167.73 209.909H178.383L218.067 319H207.627L173.43 222.853H172.684L138.486 319ZM145.997 277.185H200.116V286.134H145.997V277.185ZM251.764 319V209.909H286.974C294.715 209.909 301.178 211.312 306.363 214.117C311.583 216.887 315.507 220.74 318.135 225.676C320.798 230.577 322.13 236.205 322.13 242.562C322.13 248.918 320.798 254.529 318.135 259.394C315.507 264.259 311.601 268.059 306.416 270.793C301.231 273.528 294.804 274.895 287.133 274.895H257.144V265.786H286.867C292.549 265.786 297.272 264.845 301.036 262.963C304.836 261.081 307.659 258.4 309.506 254.92C311.388 251.44 312.329 247.32 312.329 242.562C312.329 237.803 311.388 233.648 309.506 230.097C307.623 226.511 304.782 223.741 300.983 221.788C297.219 219.835 292.46 218.858 286.707 218.858H261.725V319H251.764ZM299.864 269.781L326.711 319H315.205L288.625 269.781H299.864ZM371.354 209.909V319H361.393V209.909H371.354ZM415.358 319V209.909H452.165C459.268 209.909 465.18 211.152 469.903 213.638C474.662 216.124 478.231 219.515 480.61 223.812C482.989 228.109 484.179 232.991 484.179 238.46C484.179 243.006 483.415 246.894 481.888 250.126C480.361 253.357 478.284 255.967 475.656 257.956C473.028 259.945 470.099 261.383 466.867 262.271V263.123C470.383 263.371 473.792 264.614 477.094 266.852C480.397 269.053 483.113 272.143 485.244 276.12C487.375 280.097 488.44 284.856 488.44 290.396C488.44 295.9 487.215 300.818 484.765 305.151C482.314 309.447 478.55 312.839 473.472 315.325C468.43 317.775 462.002 319 454.189 319H415.358ZM425.319 310.051H454.189C462.606 310.051 468.82 308.187 472.833 304.458C476.881 300.729 478.905 296.042 478.905 290.396C478.905 286.241 477.893 282.477 475.869 279.103C473.881 275.694 471.057 272.995 467.4 271.006C463.778 269.018 459.516 268.023 454.616 268.023H425.319V310.051ZM425.319 259.181H453.071C457.368 259.181 461.132 258.293 464.363 256.518C467.595 254.742 470.116 252.292 471.927 249.167C473.738 246.042 474.644 242.473 474.644 238.46C474.644 232.672 472.762 227.967 468.998 224.344C465.233 220.687 459.623 218.858 452.165 218.858H425.319V259.181Z" fill="#F1EDE0"/>
<circle cx="555" cy="35" r="9" stroke="#F1EDE0" stroke-width="10"/>
<circle cx="486" cy="14" r="9" stroke="#F1EDE0" stroke-width="10"/>
<circle cx="602" cy="35" r="9" stroke="#F1EDE0" stroke-width="10"/>
<circle cx="684" cy="14" r="9" stroke="#F1EDE0" stroke-width="10"/>
<circle cx="694" cy="78" r="9" stroke="#F1EDE0" stroke-width="10"/>
<circle cx="463" cy="74" r="9" stroke="#F1EDE0" stroke-width="10"/>
</svg>
