<svg width="439" height="439" viewBox="0 0 439 439" fill="none" xmlns="http://www.w3.org/2000/svg">
<path d="M196 122.502C196 169.507 186.504 178.605 181.946 182.395M181.946 182.395C166.448 194.526 164.853 219.291 165.992 230.158M181.946 182.395C153.837 189.977 128.894 134.885 127.628 99M165.992 230.158C131.047 240.772 102.305 185.175 104.078 158.893M165.992 230.158C189.543 230.158 191.315 254.671 196 262" stroke="#F1EDE0" stroke-width="15"/>
<path d="M168.361 299.187C141.148 299.187 128.546 279.034 127 267.87C144.936 257.038 159.471 263.2 168.361 270.326C177.252 277.452 183.437 301.362 183.437 323.771V368.665C190.24 388.048 209.207 393.525 219 394" stroke="#F1EDE0" stroke-width="15"/>
<path d="M269.189 299.187C296.698 299.187 309.437 279.034 311 267.87C292.869 257.038 278.176 263.2 269.189 270.326C260.202 277.452 253.95 301.362 253.95 323.771V368.665C247.072 388.048 227.899 393.525 218 394" stroke="#F1EDE0" stroke-width="15"/>
<path d="M196.5 120C202.575 120 207.5 115.075 207.5 109C207.5 102.925 202.575 98 196.5 98C190.425 98 185.5 102.925 185.5 109C185.5 115.075 190.425 120 196.5 120ZM126.5 96.5C132.575 96.5 137.5 91.5751 137.5 85.5C137.5 79.4249 132.575 74.5 126.5 74.5C120.425 74.5 115.5 79.4249 115.5 85.5C115.5 91.5751 120.425 96.5 126.5 96.5ZM104.5 158.159C110.575 158.159 115.5 153.234 115.5 147.159C115.5 141.083 110.575 136.159 104.5 136.159C98.4249 136.159 93.5 141.083 93.5 147.159C93.5 153.234 98.4249 158.159 104.5 158.159Z" stroke="#F1EDE0" stroke-width="10"/>
<path d="M246 121.502C246 168.507 255.393 177.605 259.901 181.395M259.901 181.395C275.231 193.526 276.809 218.291 275.681 229.158M259.901 181.395C287.704 188.977 312.376 133.885 313.629 98M275.681 229.158C310.247 239.772 338.676 184.175 336.923 157.893M275.681 229.158C252.387 229.158 250.634 253.671 246 261" stroke="#F1EDE0" stroke-width="15"/>
<path d="M245 119.665C238.903 119.665 234 114.705 234 108.637C234 102.568 238.903 97.6089 245 97.6089C251.097 97.6089 256 102.568 256 108.637C256 114.705 251.097 119.665 245 119.665ZM315 96.0556C308.903 96.0556 304 91.0965 304 85.0278C304 78.9591 308.903 74 315 74C321.097 74 326 78.9591 326 85.0278C326 91.0965 321.097 96.0556 315 96.0556ZM337 158C330.903 158 326 153.041 326 146.972C326 140.904 330.903 135.944 337 135.944C343.097 135.944 348 140.904 348 146.972C348 153.041 343.097 158 337 158Z" stroke="#F1EDE0" stroke-width="10"/>
<circle cx="219.5" cy="219.5" r="212" stroke="#F1EDE0" stroke-width="15"/>
</svg>
